<mxfile host="app.diagrams.net" modified="2021-03-29T16:12:01.508Z" agent="5.0 (Windows NT 10.0; Win64; x64) AppleWebKit/537.36 (KHTML, like Gecko) Chrome/89.0.4389.90 Safari/537.36" etag="uYUzvpRRflhCaszJFCbK" version="14.5.3" type="github">
  <diagram id="C5RBs43oDa-KdzZeNtuy" name="Page-1">
    <mxGraphModel dx="1673" dy="1075" grid="1" gridSize="10" guides="1" tooltips="1" connect="1" arrows="1" fold="1" page="1" pageScale="1" pageWidth="827" pageHeight="1169" math="0" shadow="0">
      <root>
        <mxCell id="WIyWlLk6GJQsqaUBKTNV-0" />
        <mxCell id="WIyWlLk6GJQsqaUBKTNV-1" parent="WIyWlLk6GJQsqaUBKTNV-0" />
        <mxCell id="zkfFHV4jXpPFQw0GAbJ--0" value="CMatrix&#xa;" style="swimlane;fontStyle=2;align=center;verticalAlign=top;childLayout=stackLayout;horizontal=1;startSize=26;horizontalStack=0;resizeParent=1;resizeLast=0;collapsible=1;marginBottom=0;shadow=0;strokeWidth=1;fillColor=#21C0A5;strokeColor=#006658;fontColor=#5C5C5C;" parent="WIyWlLk6GJQsqaUBKTNV-1" vertex="1">
          <mxGeometry x="130" y="220" width="300" height="370" as="geometry">
            <mxRectangle x="230" y="140" width="160" height="26" as="alternateBounds" />
          </mxGeometry>
        </mxCell>
        <mxCell id="zkfFHV4jXpPFQw0GAbJ--1" value="# T** pMATItems" style="text;align=left;verticalAlign=top;spacingLeft=4;spacingRight=4;overflow=hidden;rotatable=0;points=[[0,0.5],[1,0.5]];portConstraint=eastwest;fontColor=#5C5C5C;" parent="zkfFHV4jXpPFQw0GAbJ--0" vertex="1">
          <mxGeometry y="26" width="300" height="26" as="geometry" />
        </mxCell>
        <mxCell id="zkfFHV4jXpPFQw0GAbJ--2" value="# int MATLines" style="text;align=left;verticalAlign=top;spacingLeft=4;spacingRight=4;overflow=hidden;rotatable=0;points=[[0,0.5],[1,0.5]];portConstraint=eastwest;shadow=0;html=0;fontColor=#5C5C5C;" parent="zkfFHV4jXpPFQw0GAbJ--0" vertex="1">
          <mxGeometry y="52" width="300" height="26" as="geometry" />
        </mxCell>
        <mxCell id="zkfFHV4jXpPFQw0GAbJ--3" value="# int MATColumns&#xa;" style="text;align=left;verticalAlign=top;spacingLeft=4;spacingRight=4;overflow=hidden;rotatable=0;points=[[0,0.5],[1,0.5]];portConstraint=eastwest;shadow=0;html=0;fontColor=#5C5C5C;" parent="zkfFHV4jXpPFQw0GAbJ--0" vertex="1">
          <mxGeometry y="78" width="300" height="26" as="geometry" />
        </mxCell>
        <mxCell id="zkfFHV4jXpPFQw0GAbJ--4" value="" style="line;html=1;strokeWidth=1;align=left;verticalAlign=middle;spacingTop=-1;spacingLeft=3;spacingRight=3;rotatable=0;labelPosition=right;points=[];portConstraint=eastwest;fillColor=#21C0A5;strokeColor=#006658;fontColor=#5C5C5C;" parent="zkfFHV4jXpPFQw0GAbJ--0" vertex="1">
          <mxGeometry y="104" width="300" height="8" as="geometry" />
        </mxCell>
        <mxCell id="zkfFHV4jXpPFQw0GAbJ--5" value="+ CMatrix(T** items, int lines, int columns)&#xa;+ CMatrix(const CMatrix&lt;T&gt;&amp; matrix)&#xa;+ ~CMatrix()&#xa;+ MATTranspose() : CMatrix&lt;T&gt;&#xa;+ operator-(const CMatrix&lt;T&gt;&amp; matrix) : CMatrix&lt;T&gt;&#xa;+ operator+(const CMatrix&lt;T&gt;&amp; matrix) : CMatrix&lt;T&gt;&#xa;+ operator*(const CMatrix&lt;T&gt;&amp; matrix) : CMatrix&lt;T&gt;&#xa;+ operator*(const float multiplier) : CMatrix&lt;T&gt;&#xa;+ operator*(const int multiplier) : CMatrix&lt;T&gt;&#xa;+ operator*(const double multiplier) : CMatrix&lt;T&gt;&#xa;+ operator/(const float divider) : CMatrix&lt;T&gt;&#xa;+ operator/(const int divider) : CMatrix&lt;T&gt;&#xa;+ operator/(const double divider) : CMatrix&lt;T&gt;&#xa;+ MATGetItemAt(int line, int column) : T&#xa;+ MATGetLines() : int&#xa;+ MATGetColumns() : int&#xa;+ MATPrint() : void&#xa;" style="text;align=left;verticalAlign=top;spacingLeft=4;spacingRight=4;overflow=hidden;rotatable=0;points=[[0,0.5],[1,0.5]];portConstraint=eastwest;fontColor=#5C5C5C;" parent="zkfFHV4jXpPFQw0GAbJ--0" vertex="1">
          <mxGeometry y="112" width="300" height="248" as="geometry" />
        </mxCell>
        <mxCell id="zkfFHV4jXpPFQw0GAbJ--6" value="CIntMatrix" style="swimlane;fontStyle=0;align=center;verticalAlign=top;childLayout=stackLayout;horizontal=1;startSize=26;horizontalStack=0;resizeParent=1;resizeLast=0;collapsible=1;marginBottom=0;shadow=0;strokeWidth=1;fillColor=#21C0A5;strokeColor=#006658;fontColor=#5C5C5C;" parent="WIyWlLk6GJQsqaUBKTNV-1" vertex="1" collapsed="1">
          <mxGeometry x="524" y="118" width="160" height="26" as="geometry">
            <mxRectangle x="414" width="160" height="49" as="alternateBounds" />
          </mxGeometry>
        </mxCell>
        <mxCell id="aarFeS86kZlc1j655PMt-0" value="CFloatMatrix&#xa;" style="swimlane;fontStyle=0;align=center;verticalAlign=top;childLayout=stackLayout;horizontal=1;startSize=26;horizontalStack=0;resizeParent=1;resizeLast=0;collapsible=1;marginBottom=0;shadow=0;strokeWidth=1;fillColor=#21C0A5;strokeColor=#006658;fontColor=#5C5C5C;" vertex="1" collapsed="1" parent="WIyWlLk6GJQsqaUBKTNV-1">
          <mxGeometry x="524" y="187" width="160" height="26" as="geometry">
            <mxRectangle x="414" y="60" width="160" height="49" as="alternateBounds" />
          </mxGeometry>
        </mxCell>
        <mxCell id="aarFeS86kZlc1j655PMt-1" value="CDoubleMatrix" style="swimlane;fontStyle=0;align=center;verticalAlign=top;childLayout=stackLayout;horizontal=1;startSize=26;horizontalStack=0;resizeParent=1;resizeLast=0;collapsible=1;marginBottom=0;shadow=0;strokeWidth=1;fillColor=#21C0A5;strokeColor=#006658;fontColor=#5C5C5C;" vertex="1" collapsed="1" parent="WIyWlLk6GJQsqaUBKTNV-1">
          <mxGeometry x="524" y="327.5" width="160" height="26" as="geometry">
            <mxRectangle x="414" y="200.5" width="160" height="49" as="alternateBounds" />
          </mxGeometry>
        </mxCell>
        <mxCell id="aarFeS86kZlc1j655PMt-2" value="CLongMatrix" style="swimlane;fontStyle=0;align=center;verticalAlign=top;childLayout=stackLayout;horizontal=1;startSize=26;horizontalStack=0;resizeParent=1;resizeLast=0;collapsible=1;marginBottom=0;shadow=0;strokeWidth=1;fillColor=#21C0A5;strokeColor=#006658;fontColor=#5C5C5C;" vertex="1" collapsed="1" parent="WIyWlLk6GJQsqaUBKTNV-1">
          <mxGeometry x="524" y="467" width="160" height="26" as="geometry">
            <mxRectangle x="414" y="340" width="160" height="49" as="alternateBounds" />
          </mxGeometry>
        </mxCell>
        <mxCell id="aarFeS86kZlc1j655PMt-3" value="CByteMatrix" style="swimlane;fontStyle=0;align=center;verticalAlign=top;childLayout=stackLayout;horizontal=1;startSize=26;horizontalStack=0;resizeParent=1;resizeLast=0;collapsible=1;marginBottom=0;shadow=0;strokeWidth=1;fillColor=#21C0A5;strokeColor=#006658;fontColor=#5C5C5C;" vertex="1" collapsed="1" parent="WIyWlLk6GJQsqaUBKTNV-1">
          <mxGeometry x="524" y="607" width="160" height="26" as="geometry">
            <mxRectangle x="414" y="480" width="160" height="49" as="alternateBounds" />
          </mxGeometry>
        </mxCell>
        <mxCell id="aarFeS86kZlc1j655PMt-4" value="CCharMatrix" style="swimlane;fontStyle=0;align=center;verticalAlign=top;childLayout=stackLayout;horizontal=1;startSize=26;horizontalStack=0;resizeParent=1;resizeLast=0;collapsible=1;marginBottom=0;shadow=0;strokeWidth=1;fillColor=#21C0A5;strokeColor=#006658;fontColor=#5C5C5C;" vertex="1" collapsed="1" parent="WIyWlLk6GJQsqaUBKTNV-1">
          <mxGeometry x="524" y="397" width="160" height="26" as="geometry">
            <mxRectangle x="414" y="270" width="160" height="49" as="alternateBounds" />
          </mxGeometry>
        </mxCell>
        <mxCell id="aarFeS86kZlc1j655PMt-5" value="CStringMatrix" style="swimlane;fontStyle=0;align=center;verticalAlign=top;childLayout=stackLayout;horizontal=1;startSize=26;horizontalStack=0;resizeParent=1;resizeLast=0;collapsible=1;marginBottom=0;shadow=0;strokeWidth=1;fillColor=#21C0A5;strokeColor=#006658;fontColor=#5C5C5C;" vertex="1" collapsed="1" parent="WIyWlLk6GJQsqaUBKTNV-1">
          <mxGeometry x="524" y="537" width="160" height="26" as="geometry">
            <mxRectangle x="414" y="410" width="160" height="49" as="alternateBounds" />
          </mxGeometry>
        </mxCell>
        <mxCell id="aarFeS86kZlc1j655PMt-6" value="CCustomMatrix" style="swimlane;fontStyle=0;align=center;verticalAlign=top;childLayout=stackLayout;horizontal=1;startSize=26;horizontalStack=0;resizeParent=1;resizeLast=0;collapsible=1;marginBottom=0;shadow=0;strokeWidth=1;fillColor=#21C0A5;strokeColor=#006658;fontColor=#5C5C5C;" vertex="1" collapsed="1" parent="WIyWlLk6GJQsqaUBKTNV-1">
          <mxGeometry x="524" y="257" width="160" height="26" as="geometry">
            <mxRectangle x="414" y="130" width="160" height="49" as="alternateBounds" />
          </mxGeometry>
        </mxCell>
        <mxCell id="aarFeS86kZlc1j655PMt-7" value="" style="endArrow=classic;html=1;exitX=0;exitY=0.5;exitDx=0;exitDy=0;strokeColor=#006658;fontColor=#5C5C5C;curved=1;" edge="1" parent="WIyWlLk6GJQsqaUBKTNV-1" source="aarFeS86kZlc1j655PMt-3">
          <mxGeometry width="50" height="50" relative="1" as="geometry">
            <mxPoint x="500" y="520" as="sourcePoint" />
            <mxPoint x="431" y="411" as="targetPoint" />
            <Array as="points">
              <mxPoint x="480" y="411" />
            </Array>
          </mxGeometry>
        </mxCell>
        <mxCell id="aarFeS86kZlc1j655PMt-8" value="" style="endArrow=classic;html=1;exitX=0;exitY=0.5;exitDx=0;exitDy=0;strokeColor=#006658;fontColor=#5C5C5C;curved=1;" edge="1" parent="WIyWlLk6GJQsqaUBKTNV-1" source="aarFeS86kZlc1j655PMt-5">
          <mxGeometry width="50" height="50" relative="1" as="geometry">
            <mxPoint x="500" y="520" as="sourcePoint" />
            <mxPoint x="431" y="411" as="targetPoint" />
            <Array as="points">
              <mxPoint x="480" y="411" />
            </Array>
          </mxGeometry>
        </mxCell>
        <mxCell id="aarFeS86kZlc1j655PMt-9" value="" style="endArrow=classic;html=1;exitX=0;exitY=0.5;exitDx=0;exitDy=0;strokeColor=#006658;fontColor=#5C5C5C;curved=1;" edge="1" parent="WIyWlLk6GJQsqaUBKTNV-1" source="aarFeS86kZlc1j655PMt-1">
          <mxGeometry width="50" height="50" relative="1" as="geometry">
            <mxPoint x="500" y="520" as="sourcePoint" />
            <mxPoint x="431" y="411" as="targetPoint" />
            <Array as="points">
              <mxPoint x="480" y="411" />
            </Array>
          </mxGeometry>
        </mxCell>
        <mxCell id="aarFeS86kZlc1j655PMt-10" value="" style="endArrow=classic;html=1;exitX=0;exitY=0.5;exitDx=0;exitDy=0;strokeColor=#006658;fontColor=#5C5C5C;curved=1;" edge="1" parent="WIyWlLk6GJQsqaUBKTNV-1" source="aarFeS86kZlc1j655PMt-6">
          <mxGeometry width="50" height="50" relative="1" as="geometry">
            <mxPoint x="500" y="520" as="sourcePoint" />
            <mxPoint x="430" y="410" as="targetPoint" />
            <Array as="points">
              <mxPoint x="480" y="411" />
            </Array>
          </mxGeometry>
        </mxCell>
        <mxCell id="aarFeS86kZlc1j655PMt-11" value="" style="endArrow=classic;html=1;exitX=0;exitY=0.5;exitDx=0;exitDy=0;strokeColor=#006658;fontColor=#5C5C5C;curved=1;" edge="1" parent="WIyWlLk6GJQsqaUBKTNV-1" source="aarFeS86kZlc1j655PMt-0">
          <mxGeometry width="50" height="50" relative="1" as="geometry">
            <mxPoint x="500" y="520" as="sourcePoint" />
            <mxPoint x="430" y="410" as="targetPoint" />
            <Array as="points">
              <mxPoint x="480" y="410" />
            </Array>
          </mxGeometry>
        </mxCell>
        <mxCell id="aarFeS86kZlc1j655PMt-12" value="" style="endArrow=classic;html=1;entryX=1.003;entryY=0.315;entryDx=0;entryDy=0;exitX=0;exitY=0.5;exitDx=0;exitDy=0;entryPerimeter=0;strokeColor=#006658;fontColor=#5C5C5C;curved=1;" edge="1" parent="WIyWlLk6GJQsqaUBKTNV-1" source="zkfFHV4jXpPFQw0GAbJ--6" target="zkfFHV4jXpPFQw0GAbJ--5">
          <mxGeometry width="50" height="50" relative="1" as="geometry">
            <mxPoint x="500" y="520" as="sourcePoint" />
            <mxPoint x="550" y="470" as="targetPoint" />
            <Array as="points">
              <mxPoint x="480" y="411" />
            </Array>
          </mxGeometry>
        </mxCell>
        <mxCell id="aarFeS86kZlc1j655PMt-13" value="" style="endArrow=classic;html=1;exitX=0;exitY=0.5;exitDx=0;exitDy=0;strokeColor=#006658;fontColor=#5C5C5C;curved=1;" edge="1" parent="WIyWlLk6GJQsqaUBKTNV-1" source="aarFeS86kZlc1j655PMt-4">
          <mxGeometry width="50" height="50" relative="1" as="geometry">
            <mxPoint x="500" y="520" as="sourcePoint" />
            <mxPoint x="430" y="410" as="targetPoint" />
          </mxGeometry>
        </mxCell>
        <mxCell id="aarFeS86kZlc1j655PMt-14" value="" style="endArrow=classic;html=1;exitX=0;exitY=0.5;exitDx=0;exitDy=0;strokeColor=#006658;fontColor=#5C5C5C;curved=1;" edge="1" parent="WIyWlLk6GJQsqaUBKTNV-1" source="aarFeS86kZlc1j655PMt-2">
          <mxGeometry width="50" height="50" relative="1" as="geometry">
            <mxPoint x="520" y="480" as="sourcePoint" />
            <mxPoint x="431" y="411" as="targetPoint" />
            <Array as="points">
              <mxPoint x="480" y="411" />
            </Array>
          </mxGeometry>
        </mxCell>
        <mxCell id="aarFeS86kZlc1j655PMt-15" value="T" style="whiteSpace=wrap;html=1;aspect=fixed;dashed=1;fontSize=17;fillColor=#21C0A5;strokeColor=#006658;fontColor=#5C5C5C;" vertex="1" parent="WIyWlLk6GJQsqaUBKTNV-1">
          <mxGeometry x="414" y="190" width="41" height="41" as="geometry" />
        </mxCell>
        <mxCell id="aarFeS86kZlc1j655PMt-16" value="int" style="whiteSpace=wrap;html=1;aspect=fixed;dashed=1;fillColor=#21C0A5;strokeColor=#006658;fontColor=#5C5C5C;" vertex="1" parent="WIyWlLk6GJQsqaUBKTNV-1">
          <mxGeometry x="670" y="88" width="40" height="40" as="geometry" />
        </mxCell>
        <mxCell id="aarFeS86kZlc1j655PMt-17" value="float" style="whiteSpace=wrap;html=1;aspect=fixed;dashed=1;fillColor=#21C0A5;strokeColor=#006658;fontColor=#5C5C5C;" vertex="1" parent="WIyWlLk6GJQsqaUBKTNV-1">
          <mxGeometry x="670" y="158" width="40" height="40" as="geometry" />
        </mxCell>
        <mxCell id="aarFeS86kZlc1j655PMt-18" value="void*" style="whiteSpace=wrap;html=1;aspect=fixed;dashed=1;fillColor=#21C0A5;strokeColor=#006658;fontColor=#5C5C5C;" vertex="1" parent="WIyWlLk6GJQsqaUBKTNV-1">
          <mxGeometry x="670" y="227" width="40" height="40" as="geometry" />
        </mxCell>
        <mxCell id="aarFeS86kZlc1j655PMt-19" value="double" style="whiteSpace=wrap;html=1;aspect=fixed;dashed=1;fontSize=10;fillColor=#21C0A5;strokeColor=#006658;fontColor=#5C5C5C;" vertex="1" parent="WIyWlLk6GJQsqaUBKTNV-1">
          <mxGeometry x="670" y="298" width="40" height="40" as="geometry" />
        </mxCell>
        <mxCell id="aarFeS86kZlc1j655PMt-20" value="char" style="whiteSpace=wrap;html=1;aspect=fixed;dashed=1;fillColor=#21C0A5;strokeColor=#006658;fontColor=#5C5C5C;" vertex="1" parent="WIyWlLk6GJQsqaUBKTNV-1">
          <mxGeometry x="670" y="368" width="40" height="40" as="geometry" />
        </mxCell>
        <mxCell id="aarFeS86kZlc1j655PMt-21" value="long" style="whiteSpace=wrap;html=1;aspect=fixed;dashed=1;fillColor=#21C0A5;strokeColor=#006658;fontColor=#5C5C5C;" vertex="1" parent="WIyWlLk6GJQsqaUBKTNV-1">
          <mxGeometry x="670" y="438" width="40" height="40" as="geometry" />
        </mxCell>
        <mxCell id="aarFeS86kZlc1j655PMt-22" value="char*" style="whiteSpace=wrap;html=1;aspect=fixed;dashed=1;fillColor=#21C0A5;strokeColor=#006658;fontColor=#5C5C5C;" vertex="1" parent="WIyWlLk6GJQsqaUBKTNV-1">
          <mxGeometry x="670" y="508" width="40" height="40" as="geometry" />
        </mxCell>
        <mxCell id="aarFeS86kZlc1j655PMt-23" value="byte" style="whiteSpace=wrap;html=1;aspect=fixed;dashed=1;fillColor=#21C0A5;strokeColor=#006658;fontColor=#5C5C5C;" vertex="1" parent="WIyWlLk6GJQsqaUBKTNV-1">
          <mxGeometry x="670" y="578" width="40" height="40" as="geometry" />
        </mxCell>
        <mxCell id="aarFeS86kZlc1j655PMt-25" value="CMatrixReader" style="swimlane;fontStyle=0;align=center;verticalAlign=top;childLayout=stackLayout;horizontal=1;startSize=26;horizontalStack=0;resizeParent=1;resizeLast=0;collapsible=1;marginBottom=0;shadow=0;strokeWidth=1;fillColor=#21C0A5;strokeColor=#006658;fontColor=#5C5C5C;" vertex="1" parent="WIyWlLk6GJQsqaUBKTNV-1">
          <mxGeometry x="135" y="700" width="290" height="150" as="geometry">
            <mxRectangle x="230" y="140" width="160" height="26" as="alternateBounds" />
          </mxGeometry>
        </mxCell>
        <mxCell id="aarFeS86kZlc1j655PMt-26" value="- char* pMARFilename&#xa;" style="text;align=left;verticalAlign=top;spacingLeft=4;spacingRight=4;overflow=hidden;rotatable=0;points=[[0,0.5],[1,0.5]];portConstraint=eastwest;fontColor=#5C5C5C;" vertex="1" parent="aarFeS86kZlc1j655PMt-25">
          <mxGeometry y="26" width="290" height="26" as="geometry" />
        </mxCell>
        <mxCell id="aarFeS86kZlc1j655PMt-29" value="" style="line;html=1;strokeWidth=1;align=left;verticalAlign=middle;spacingTop=-1;spacingLeft=3;spacingRight=3;rotatable=0;labelPosition=right;points=[];portConstraint=eastwest;fillColor=#21C0A5;strokeColor=#006658;fontColor=#5C5C5C;" vertex="1" parent="aarFeS86kZlc1j655PMt-25">
          <mxGeometry y="52" width="290" height="8" as="geometry" />
        </mxCell>
        <mxCell id="aarFeS86kZlc1j655PMt-30" value="+ CMatrixReader(char* filename)&#xa;+ CMatrixReader(const CMatrixReader reader)&#xa;+ ~CMatrixReader()&#xa;+ MARRead() : CDoubleMatrix&#xa;+ MARGetFilename() : char*" style="text;align=left;verticalAlign=top;spacingLeft=4;spacingRight=4;overflow=hidden;rotatable=0;points=[[0,0.5],[1,0.5]];portConstraint=eastwest;fontColor=#5C5C5C;" vertex="1" parent="aarFeS86kZlc1j655PMt-25">
          <mxGeometry y="60" width="290" height="80" as="geometry" />
        </mxCell>
        <mxCell id="aarFeS86kZlc1j655PMt-32" value="" style="endArrow=classic;html=1;fontSize=17;dashed=1;exitX=0.5;exitY=0;exitDx=0;exitDy=0;strokeColor=#006658;fontColor=#5C5C5C;curved=1;" edge="1" parent="WIyWlLk6GJQsqaUBKTNV-1" source="aarFeS86kZlc1j655PMt-25">
          <mxGeometry width="50" height="50" relative="1" as="geometry">
            <mxPoint x="420" y="700" as="sourcePoint" />
            <mxPoint x="280" y="590" as="targetPoint" />
          </mxGeometry>
        </mxCell>
        <mxCell id="aarFeS86kZlc1j655PMt-41" value="CMatrixException" style="swimlane;fontStyle=0;align=center;verticalAlign=top;childLayout=stackLayout;horizontal=1;startSize=26;horizontalStack=0;resizeParent=1;resizeLast=0;collapsible=1;marginBottom=0;shadow=0;strokeWidth=1;fillColor=#21C0A5;strokeColor=#006658;fontColor=#5C5C5C;" vertex="1" parent="WIyWlLk6GJQsqaUBKTNV-1">
          <mxGeometry x="490" y="700" width="290" height="110" as="geometry">
            <mxRectangle x="230" y="140" width="160" height="26" as="alternateBounds" />
          </mxGeometry>
        </mxCell>
        <mxCell id="aarFeS86kZlc1j655PMt-42" value="- char* pMAEMessage&#xa;" style="text;align=left;verticalAlign=top;spacingLeft=4;spacingRight=4;overflow=hidden;rotatable=0;points=[[0,0.5],[1,0.5]];portConstraint=eastwest;fontColor=#5C5C5C;" vertex="1" parent="aarFeS86kZlc1j655PMt-41">
          <mxGeometry y="26" width="290" height="26" as="geometry" />
        </mxCell>
        <mxCell id="aarFeS86kZlc1j655PMt-43" value="" style="line;html=1;strokeWidth=1;align=left;verticalAlign=middle;spacingTop=-1;spacingLeft=3;spacingRight=3;rotatable=0;labelPosition=right;points=[];portConstraint=eastwest;fillColor=#21C0A5;strokeColor=#006658;fontColor=#5C5C5C;" vertex="1" parent="aarFeS86kZlc1j655PMt-41">
          <mxGeometry y="52" width="290" height="8" as="geometry" />
        </mxCell>
        <mxCell id="aarFeS86kZlc1j655PMt-44" value="+ CMatrixException(char* message)&#xa;+ MAEGetMessage() : char*" style="text;align=left;verticalAlign=top;spacingLeft=4;spacingRight=4;overflow=hidden;rotatable=0;points=[[0,0.5],[1,0.5]];portConstraint=eastwest;fontColor=#5C5C5C;" vertex="1" parent="aarFeS86kZlc1j655PMt-41">
          <mxGeometry y="60" width="290" height="40" as="geometry" />
        </mxCell>
        <mxCell id="aarFeS86kZlc1j655PMt-46" value="" style="endArrow=classic;html=1;dashed=1;strokeColor=#006658;fillColor=#21C0A5;fontColor=#5C5C5C;exitX=1;exitY=0.5;exitDx=0;exitDy=0;entryX=0;entryY=0.5;entryDx=0;entryDy=0;" edge="1" parent="WIyWlLk6GJQsqaUBKTNV-1" source="aarFeS86kZlc1j655PMt-30" target="aarFeS86kZlc1j655PMt-41">
          <mxGeometry width="50" height="50" relative="1" as="geometry">
            <mxPoint x="520" y="680" as="sourcePoint" />
            <mxPoint x="570" y="630" as="targetPoint" />
          </mxGeometry>
        </mxCell>
        <mxCell id="aarFeS86kZlc1j655PMt-47" value="" style="endArrow=classic;html=1;dashed=1;strokeColor=#006658;fillColor=#21C0A5;fontColor=#5C5C5C;exitX=0.75;exitY=1;exitDx=0;exitDy=0;entryX=0;entryY=0.5;entryDx=0;entryDy=0;" edge="1" parent="WIyWlLk6GJQsqaUBKTNV-1" source="zkfFHV4jXpPFQw0GAbJ--0" target="aarFeS86kZlc1j655PMt-41">
          <mxGeometry width="50" height="50" relative="1" as="geometry">
            <mxPoint x="520" y="680" as="sourcePoint" />
            <mxPoint x="490" y="770" as="targetPoint" />
          </mxGeometry>
        </mxCell>
      </root>
    </mxGraphModel>
  </diagram>
</mxfile>
